<svg width="46" height="46" viewBox="0 0 46 46" fill="none" xmlns="http://www.w3.org/2000/svg">
<rect width="46" height="46" rx="6" fill="#16181C"/>
<rect x="0.5" y="0.5" width="45" height="45" rx="5.5" stroke="#3A3F45"/>
<path d="M8 10L13 14.5L8 19" stroke="#50F095" stroke-width="2"/>
<rect x="15" y="18" width="8" height="2" fill="#EEEEEE"/>
<rect x="8" y="26" width="4" height="4" fill="#50F095"/>
<rect x="13" y="26" width="4" height="4" fill="#50F095"/>
<rect x="18" y="26" width="4" height="4" fill="#A1DB77"/>
<rect x="23" y="26" width="4" height="4" fill="#F2C55C"/>
<rect x="28" y="26" width="4" height="4" fill="#FF4769"/>
<rect x="33" y="26" width="4" height="4" fill="#404040"/>
<g stroke="url(#logo)" stroke-width="2" stroke-dasharray="2 2">
<line x1="9" y1="40" x2="9" y2="36"/>
<line x1="13" y1="40" x2="13" y2="34"/>
<line x1="17" y1="40" x2="17" y2="36"/>
<line x1="21" y1="40" x2="21" y2="32"/>
<line x1="25" y1="40" x2="25" y2="34"/>
<line x1="29" y1="40" x2="29" y2="36"/>
<line x1="33" y1="40" x2="33" y2="32"/>
<line x1="37" y1="40" x2="37" y2="34"/>
</g>
<defs>
<linearGradient id="logo" x1="0" y1="40" x2="0" y2="32" gradientUnits="userSpaceOnUse">
<stop stop-color="#50F095"/>
<stop offset="1" stop-color="#F2C55C"/>
</linearGradient>
</defs>
</svg>
